<?xml version="1.0" encoding="utf-8"?>
<!-- Generator: Adobe Illustrator 18.0.0, SVG Export Plug-In . SVG Version: 6.00 Build 0)  -->
<!DOCTYPE svg PUBLIC "-//W3C//DTD SVG 1.1//EN" "http://www.w3.org/Graphics/SVG/1.1/DTD/svg11.dtd">
<svg version="1.1" id="Layer_1" xmlns="http://www.w3.org/2000/svg" xmlns:xlink="http://www.w3.org/1999/xlink" x="0px" y="0px"
	 viewBox="831.6 8.8 1079 1079" enable-background="new 831.6 8.8 1079 1079" xml:space="preserve">
<circle fill="#ACC8F8" cx="1371.2" cy="548.3" r="539.5"/>
<g>
	<g>
		<defs>
			<circle id="SVGID_1_" cx="1371.2" cy="548.3" r="539.5"/>
		</defs>
		<clipPath id="SVGID_2_">
			<use xlink:href="#SVGID_1_"  overflow="visible"/>
		</clipPath>
		<g clip-path="url(#SVGID_2_)">
			<path fill="#FFD15C" d="M1834,1050.3c0,11.5-3.8,21.2-11.5,28.9c-7.7,5.8-15.4,9.6-26.9,9.6H950c-9.6,0-19.2-3.8-26.9-9.6
				c-7.7-7.7-11.5-17.3-11.5-28.9V487.3h922.5L1834,1050.3L1834,1050.3z"/>
			<path fill="#F8B64C" d="M1822.5,1079.2c-7.7,5.8-15.4,9.6-26.9,9.6H950c-9.6,0-19.2-3.8-26.9-9.6l449.7-386.3L1822.5,1079.2z"/>
			<path fill="#40596B" d="M1834,487.3l-130.7,94.2l-305.6,219.1c-15.4,11.5-36.6,11.5-51.8,0l-303.7-219.1l-130.7-94.2l130.7-94.2
				l284.4-203.7l21.2-15.4c15.4-11.5,36.6-11.5,51.8,0l21.2,15.4l136.4,98l67.2,48l78.8,57.6L1834,487.3z"/>
			<path fill="#F2F2F2" d="M1703.4,308.6v272.9l-305.6,219.1c-15.4,11.5-36.6,11.5-51.8,0l-303.7-219.1V227.9
				c0-21.2,17.3-38.5,38.5-38.5h501.6L1703.4,308.6z"/>
			<g>
				<g>
					<defs>
						<path id="SVGID_3_" d="M1703.4,308.6v272.9l-305.6,219.1c-15.4,11.5-36.6,11.5-51.8,0l-303.7-219.1V227.9
							c0-21.2,17.3-38.5,38.5-38.5h501.6L1703.4,308.6z"/>
					</defs>
					<defs>
						<path id="SVGID_4_" d="M1703.4,308.6v272.9l-305.6,219.1c-15.4,11.5-36.6,11.5-51.8,0l-303.7-219.1V227.9
							c0-21.2,17.3-38.5,38.5-38.5h501.6L1703.4,308.6z"/>
					</defs>
					<defs>
						<path id="SVGID_5_" d="M1703.4,308.6v272.9l-305.6,219.1c-15.4,11.5-36.6,11.5-51.8,0l-303.7-219.1V227.9
							c0-21.2,17.3-38.5,38.5-38.5h501.6L1703.4,308.6z"/>
					</defs>
					<clipPath id="SVGID_6_">
						<use xlink:href="#SVGID_3_"  overflow="visible"/>
					</clipPath>
					<clipPath id="SVGID_7_" clip-path="url(#SVGID_6_)">
						<use xlink:href="#SVGID_4_"  overflow="visible"/>
					</clipPath>
					<clipPath id="SVGID_8_" clip-path="url(#SVGID_7_)">
						<use xlink:href="#SVGID_5_"  overflow="visible"/>
					</clipPath>
					<g clip-path="url(#SVGID_8_)">
						<path fill="#B49ACA" d="M1103.3,585.9h523.3c8.1,0,14.7,6.6,14.7,14.7v88.1c0,8.1-6.6,14.7-14.7,14.7h-523.3
							c-8.1,0-14.7-6.6-14.7-14.7v-88.1C1088.7,592.4,1095.3,585.9,1103.3,585.9z"/>
						<path fill="#3D324C" d="M1605.4,683.5h-479.5c-8.1,0-14.7-6.6-14.7-14.7s6.6-14.7,14.7-14.7h479.4c8.1,0,14.7,6.6,14.7,14.7
							S1613.5,683.5,1605.4,683.5z"/>
						<path fill="#3D324C" d="M1605.4,635.5h-479.5c-8.1,0-14.7-6.6-14.7-14.7c0-8.1,6.6-14.7,14.7-14.7h479.4
							c8.1,0,14.7,6.6,14.7,14.7C1620,628.9,1613.5,635.5,1605.4,635.5z"/>
					</g>
					<g clip-path="url(#SVGID_8_)">
						<path fill="#B49ACA" d="M1103.3,446h523.3c8.1,0,14.7,6.6,14.7,14.7v88.1c0,8.1-6.6,14.7-14.7,14.7h-523.3
							c-8.1,0-14.7-6.6-14.7-14.7v-88.1C1088.7,452.5,1095.3,446,1103.3,446z"/>
						<path fill="#3D324C" d="M1605.4,543.6h-479.5c-8.1,0-14.7-6.6-14.7-14.7c0-8.1,6.6-14.7,14.7-14.7h479.4
							c8.1,0,14.7,6.6,14.7,14.7C1620,537,1613.5,543.6,1605.4,543.6z"/>
						<path fill="#3D324C" d="M1605.4,495.7h-479.5c-8.1,0-14.7-6.6-14.7-14.7c0-8.1,6.6-14.7,14.7-14.7h479.4
							c8.1,0,14.7,6.6,14.7,14.7C1620,489.1,1613.5,495.7,1605.4,495.7z"/>
					</g>
					<path clip-path="url(#SVGID_8_)" fill="#CDD6E0" d="M1584.2,277.8c0,17.3,13.5,30.8,30.8,30.8h88.4l-119.2-119.2V277.8
						L1584.2,277.8z"/>
				</g>
			</g>
		</g>
		<g clip-path="url(#SVGID_2_)">
			<path fill="#374EA2" d="M1136.3,297.7v59.7c0,4.2-0.2,7.7-0.5,10.5c-0.3,2.7-0.6,4.7-1.1,5.8c-2.9,7.4-9.2,11.3-18.7,11.3
				c-5.3,0-9.3-0.8-12.1-2.3c-2.7-1.4-4.2-3.5-4.2-6.4c0-2.1,0.6-3.7,1.9-5c1.3-1.3,2.9-1.9,4.8-1.9c0.3,0,0.6,0,1.3,0.2
				c0.6,0.2,1.4,0.2,2.6,0.2c1.1,0.2,1.9,0.2,2.4,0.2c2.4,0,3.9-1,4.7-2.7s1.1-5.2,1.1-10v-59.3c0-3.5,0.8-6.1,2.4-7.9
				s3.7-2.6,6.4-2.6c2.6,0,4.7,0.8,6.3,2.6C1135.3,291.8,1136.3,294.3,1136.3,297.7z M1127.6,279c-2.4,0-4.5-0.8-6.3-2.3
				c-1.8-1.4-2.6-3.7-2.6-6.4c0-2.4,1-4.5,2.7-6.1c1.8-1.6,3.9-2.4,6.3-2.4c2.3,0,4.3,0.8,6.1,2.3c1.8,1.4,2.6,3.5,2.6,6.4
				c0,2.7-0.8,4.8-2.6,6.3C1132.1,278.4,1130,279,1127.6,279z"/>
			<path fill="#374EA2" d="M1220.2,323c0,5.3-0.8,10.1-2.4,14.5c-1.6,4.3-4,8.2-7.1,11.4c-3.1,3.2-6.8,5.6-11.1,7.2
				c-4.3,1.8-9.2,2.6-14.5,2.6s-10.1-0.8-14.3-2.6c-4.2-1.8-7.9-4.2-11.1-7.4c-3.1-3.2-5.5-6.9-7.1-11.3c-1.6-4.3-2.4-9.2-2.4-14.5
				s0.8-10.1,2.4-14.7c1.6-4.3,4-8.2,7.1-11.3c3.1-3.1,6.8-5.5,11.1-7.2s9.2-2.6,14.3-2.6c5.3,0,10.1,0.8,14.5,2.6s8.1,4.2,11.1,7.4
				c3.1,3.2,5.5,6.9,7.1,11.3C1219.4,313,1220.2,317.8,1220.2,323z M1202.7,323c0-7.2-1.6-12.7-4.7-16.7c-3.2-4-7.4-6-12.7-6
				c-3.4,0-6.4,1-9,2.7s-4.7,4.3-6.1,7.9c-1.4,3.5-2.1,7.6-2.1,12.2s0.6,8.7,2.1,12.1c1.4,3.4,3.4,6.1,6,7.9
				c2.6,1.8,5.6,2.7,9.2,2.7c5.3,0,9.5-1.9,12.7-6C1201,335.7,1202.7,330.1,1202.7,323z"/>
			<path fill="#374EA2" d="M1250.3,271.1V298c3.4-3.4,6.6-6.1,10.1-7.9c3.4-1.8,7.7-2.7,12.7-2.7c5.8,0,11,1.4,15.3,4.2
				c4.3,2.7,7.9,6.8,10.3,12.1c2.4,5.3,3.7,11.4,3.7,18.7c0,5.3-0.6,10.1-2.1,14.7c-1.3,4.5-3.4,8.4-6,11.6
				c-2.6,3.2-5.6,5.8-9.3,7.6c-3.7,1.8-7.7,2.7-12.1,2.7c-2.7,0-5.3-0.3-7.6-1c-2.3-0.6-4.3-1.4-6.1-2.6s-3.1-2.1-4.3-3.2
				c-1.1-1.1-2.7-2.7-4.7-5v1.8c0,3.4-0.8,5.8-2.4,7.6s-3.5,2.6-6.1,2.6c-2.4,0-4.5-0.8-6-2.6c-1.4-1.8-2.3-4.2-2.3-7.6v-76.8
				c0-3.5,0.6-6.3,2.1-8.1c1.4-1.8,3.4-2.7,6-2.7c2.7,0,4.8,0.8,6.3,2.6S1250.3,267.9,1250.3,271.1z M1251.3,323.5
				c0,7.1,1.6,12.4,4.8,16.1c3.2,3.7,7.4,5.6,12.6,5.6c4.3,0,8.2-1.9,11.4-5.8c3.2-3.9,4.8-9.3,4.8-16.6c0-4.7-0.6-8.7-1.9-11.9
				c-1.3-3.4-3.2-6-5.6-7.7c-2.4-1.8-5.3-2.7-8.5-2.7c-3.4,0-6.3,1-9,2.7c-2.6,1.8-4.7,4.5-6.1,7.9
				C1251.9,314.6,1251.3,318.6,1251.3,323.5z"/>
			<path fill="#374EA2" d="M1325.5,279c-2.4,0-4.5-0.8-6.3-2.3c-1.8-1.4-2.6-3.7-2.6-6.4c0-2.4,1-4.5,2.7-6.1
				c1.8-1.6,3.9-2.4,6.3-2.4c2.3,0,4.3,0.8,6.1,2.3c1.8,1.4,2.6,3.5,2.6,6.4c0,2.7-0.8,4.8-2.6,6.3
				C1330,278.2,1327.9,279,1325.5,279z M1334.2,297.2v50.9c0,3.5-0.8,6.1-2.6,8.1s-3.9,2.7-6.4,2.7s-4.7-1-6.3-2.7s-2.4-4.5-2.4-7.9
				v-50.4c0-3.5,0.8-6.1,2.4-7.9s3.7-2.6,6.3-2.6s4.7,0.8,6.4,2.6S1334.2,294.2,1334.2,297.2z"/>
			<path fill="#374EA2" d="M1368.4,297.1v2.1c3.1-4,6.4-7.1,10.1-9s7.9-2.9,12.7-2.9c4.7,0,8.9,1,12.4,3.1c3.7,2.1,6.4,4.8,8.2,8.5
				c1.1,2.1,1.9,4.5,2.3,6.9s0.5,5.6,0.5,9.5V348c0,3.5-0.8,6.1-2.4,8.1c-1.6,1.8-3.7,2.7-6.3,2.7c-2.6,0-4.7-1-6.4-2.7
				c-1.6-1.8-2.4-4.5-2.4-7.9v-29.3c0-5.8-0.8-10.3-2.4-13.4c-1.6-3.1-4.8-4.7-9.7-4.7c-3.1,0-6,1-8.5,2.7c-2.6,1.9-4.5,4.5-5.6,7.7
				c-0.8,2.6-1.3,7.6-1.3,14.7V348c0,3.5-0.8,6.3-2.4,8.1c-1.6,1.8-3.9,2.7-6.4,2.7s-4.7-1-6.3-2.7c-1.6-1.8-2.4-4.5-2.4-7.9v-50.9
				c0-3.4,0.8-5.8,2.3-7.6c1.4-1.6,3.4-2.4,6-2.4c1.6,0,2.9,0.3,4.2,1.1c1.3,0.8,2.3,1.8,3.1,3.2
				C1368,293.2,1368.4,295,1368.4,297.1z"/>
			<path fill="#374EA2" d="M1449.8,297.7v59.7c0,4.2-0.2,7.7-0.5,10.5c-0.3,2.7-0.6,4.7-1.1,5.8c-2.9,7.4-9.2,11.3-18.7,11.3
				c-5.3,0-9.3-0.8-12.1-2.3c-2.7-1.4-4.2-3.5-4.2-6.4c0-2.1,0.6-3.7,1.9-5c1.3-1.3,2.9-1.9,4.8-1.9c0.3,0,0.6,0,1.3,0.2
				c0.6,0.2,1.4,0.2,2.6,0.2c1.1,0.2,1.9,0.2,2.4,0.2c2.4,0,3.9-1,4.7-2.7s1.1-5.2,1.1-10v-59.3c0-3.5,0.8-6.1,2.4-7.9
				s3.7-2.6,6.4-2.6c2.6,0,4.7,0.8,6.3,2.6C1448.9,291.8,1449.8,294.3,1449.8,297.7z M1441.2,279c-2.4,0-4.5-0.8-6.3-2.3
				c-1.8-1.4-2.6-3.7-2.6-6.4c0-2.4,1-4.5,2.7-6.1c1.8-1.6,3.9-2.4,6.3-2.4c2.3,0,4.3,0.8,6.1,2.3c1.8,1.4,2.6,3.5,2.6,6.4
				c0,2.7-0.8,4.8-2.6,6.3C1445.7,278.2,1443.6,279,1441.2,279z"/>
			<path fill="#374EA2" d="M1512.5,348.9c-4.2,3.4-8.4,5.8-12.4,7.4c-4,1.6-8.4,2.4-13.4,2.4c-4.5,0-8.5-1-11.9-2.7
				c-3.4-1.8-6.1-4.2-7.9-7.2c-1.8-3.1-2.7-6.3-2.7-10c0-4.8,1.4-8.9,4.5-12.2s7.2-5.6,12.6-6.8c1.1-0.3,3.9-0.8,8.4-1.8
				c4.5-1,8.2-1.8,11.4-2.4c3.2-0.8,6.6-1.6,10.3-2.7c-0.2-4.7-1.1-8.1-2.7-10.1c-1.6-2.1-5.2-3.2-10.3-3.2c-4.5,0-7.9,0.6-10.1,1.9
				s-4.2,3.1-5.8,5.6c-1.6,2.4-2.7,4.2-3.4,5c-0.6,0.8-2.1,1.1-4.3,1.1c-1.9,0-3.7-0.6-5.2-1.9c-1.4-1.3-2.1-2.9-2.1-4.8
				c0-3.1,1.1-6.1,3.2-9c2.3-2.9,5.6-5.3,10.3-7.2s10.5-2.9,17.4-2.9c7.7,0,13.8,1,18.2,2.7s7.6,4.7,9.3,8.7c1.8,4,2.7,9.2,2.7,15.8
				c0,4.2,0,7.6,0,10.5s0,6.1-0.2,9.7c0,3.4,0.5,6.8,1.6,10.3c1.1,3.5,1.6,6,1.6,6.9c0,1.8-0.8,3.4-2.6,5c-1.8,1.4-3.5,2.3-5.8,2.3
				c-1.8,0-3.5-0.8-5.3-2.6C1516.4,354.6,1514.4,352.1,1512.5,348.9z M1511.4,323.5c-2.6,1-6.3,1.9-11.3,3.1
				c-5,1.1-8.4,1.8-10.1,2.3c-1.9,0.5-3.7,1.4-5.5,2.9c-1.8,1.4-2.6,3.4-2.6,6c0,2.7,1,5,3.1,6.8c2.1,1.9,4.7,2.7,7.9,2.7
				c3.5,0,6.8-0.8,9.7-2.3c2.9-1.4,5.2-3.5,6.4-6c1.6-2.7,2.4-7.1,2.4-13.2V323.5L1511.4,323.5z"/>
		</g>
	</g>
</g>
</svg>
