<?xml version="1.0" encoding="utf-8"?>
<!-- Generator: Adobe Illustrator 18.0.0, SVG Export Plug-In . SVG Version: 6.00 Build 0)  -->
<!DOCTYPE svg PUBLIC "-//W3C//DTD SVG 1.1//EN" "http://www.w3.org/Graphics/SVG/1.1/DTD/svg11.dtd">
<svg version="1.1" id="Layer_1" xmlns="http://www.w3.org/2000/svg" xmlns:xlink="http://www.w3.org/1999/xlink" x="0px" y="0px"
	 viewBox="836 0 1080.1 1080" enable-background="new 836 0 1080.1 1080" xml:space="preserve">
<circle fill="#ACC8F8" cx="1376" cy="540.1" r="540.1"/>
<g>
	<g>
		<defs>
			<circle id="SVGID_1_" cx="1376" cy="540.1" r="540.1"/>
		</defs>
		<clipPath id="SVGID_2_">
			<use xlink:href="#SVGID_1_"  overflow="visible"/>
		</clipPath>
		<g clip-path="url(#SVGID_2_)">
			<path fill="#FFC166" d="M938.1,461l435.3,217.7L1808.7,461v464.4L1373.4,1143L938.1,925.3V461z"/>
			<path fill="#FF9700" d="M938.1,504.5v135.6L1372,852.8l436.8-213.3V504.5l-435.4,213.3L938.1,504.5z"/>
			<path fill="#FFB133" d="M1373.4,1143V678.6L967.1,475.4h-29v449.9L1373.4,1143z"/>
			<path fill="#FF9700" d="M938.1,504.5v135.6L1372,852.8l1.4-0.7V717v0.7L938.1,504.5z"/>
			<path fill="#FFCB80" d="M909.1,445.8l464.4-231.4l464.4,231.4v30.5l-464.4,231.4L909.1,477V445.8z"/>
			<path fill="#EFEFEF" d="M1639.7,287.6c-15.2-27.6-47.9-44.3-86.3-44.3c-87.7,0-149.4,82-179.9,134.2
				c-30.5-52.2-92.9-133.5-179.9-133.5c-55.8,0-95.8,34.1-95.8,80.5c0,82.7,90.7,136.4,272.8,136.4s278.6-68.9,278.6-135.6
				C1649.1,312.2,1646.2,299.2,1639.7,287.6z M1212.3,376.8c-20.3-13.8-27.6-29-27.6-39.1c0-12.4,11.6-21.7,28.3-21.7
				c39.1,0,70.3,51.5,87.7,87C1255.2,399.3,1228.3,387,1212.3,376.8z M1534.5,376.8c-16,10.2-42.8,22.5-88.5,26.2
				c16.7-35.5,47.9-87,87.7-87c16.7,0,28.3,9.5,28.3,21.7C1562.1,347.8,1554.9,363.1,1534.5,376.8z"/>
			<path fill="#FFAC33" d="M909.1,446.5l464.4,227.1l464.4-227.1v150.2l-465.8,227l-463-227V446.5z"/>
			<path fill="#EFEFEF" d="M1547.6,608.3v-16.7l-174.2-94.3l-174.2,94.3v16.7l-116-50.8v-23.2L1367.7,384l5.8,2.9l5.8-2.9
				l284.5,149.4v23.2L1547.6,608.3z"/>
			<path fill="#DCDCDC" d="M1547.6,591.6v463.7l116.1-58.1V533.5L1547.6,591.6z"/>
			<path fill="#D1D1D1" d="M1083.2,997.9l116.1,58.1V592.3l-116.1-58.8C1083.2,533.5,1083.2,997.9,1083.2,997.9z"/>
		</g>
	</g>
</g>
</svg>
