<?xml version="1.0" encoding="utf-8"?>
<!-- Generator: Adobe Illustrator 18.0.0, SVG Export Plug-In . SVG Version: 6.00 Build 0)  -->
<!DOCTYPE svg PUBLIC "-//W3C//DTD SVG 1.1//EN" "http://www.w3.org/Graphics/SVG/1.1/DTD/svg11.dtd">
<svg version="1.1" id="Capa_1" xmlns="http://www.w3.org/2000/svg" xmlns:xlink="http://www.w3.org/1999/xlink" x="0px" y="0px"
	 viewBox="840.1 0 1079.9 1080" enable-background="new 840.1 0 1079.9 1080" xml:space="preserve">
<circle fill="#ACC8F8" cx="1379.9" cy="540" r="540"/>
<g>
	<path fill="#E30101" d="M1377,584.9l187.2,401.4l17-51.8l16-54l51.7,22.5l50.6,20.2l-187.2-401.4L1377,584.9z"/>
	<path fill="#E30101" d="M1378.5,584.9l-187.2,401.4l-17-51.8l-16-54l-51.7,22.5l-50.6,20.2l187.2-401.4L1378.5,584.9z"/>
	<path fill="#E5A300" d="M1733.4,432.3l-78.9,90l10.9,119.2l-116.8,26.4l-61.1,102.9l-110-47.4l-110,47.4l-61.1-102.9l-116.6-26.5
		l10.9-119.2l-78.9-90l78.9-90l-10.9-119.1l116.8-26.4l61.1-102.9l110,47.4l110-47.4l61.1,102.9l116.8,26.4l-10.9,119.2
		L1733.4,432.3z"/>
	<path fill="#FFFFFF" d="M1575.4,432.3c0,109.2-88.6,197.8-197.8,197.8s-197.8-88.6-197.8-197.8s88.6-197.8,197.8-197.8
		S1575.4,323,1575.4,432.3z"/>
</g>
<g id="abWv4m.tif">
	<g>
		<path fill="#E30101" d="M1445.8,349.9c-5.7,8.6-9.9,17.9-13.6,27.3c-1.8,4.1-0.7,8.9-3.6,12.8c-3.1,5.5,0.3,12.2-3.4,17.6
			c-1.4,6.5-1.7,13,0.9,19.3c2.5,6.2,6.7,9.4,14.5,7.8c6.6-1.3,13.9-0.6,17-8c4.4-10.7,8.8-21.5,13.2-32.2c3.7-3,2.7-7.5,3.9-11.3
			c6.8-8.1,1.3-17.5,3.1-26.1c2.2-10.3,4.2-20.7,7.2-31.1c2.2,4.4,5.4,8.1,5.7,12.9c1.2,3,0.5,6.1,0.6,9.1
			c-1.1,8.9-2.1,17.7,2.7,26.1c0,1.1,0,2.1,0,3.2c-2.2,2.9-1.9,6.5-3.7,9.5c-3.5,12.8-7.3,25.6-13.5,37.6
			c-9.2,17.7-21.4,24.4-42.5,23c-13.3-0.9-23.1-10.1-24.9-22.2c-1.7-11.2,1.2-22.3,0.7-33.4l-0.1,0.1c2.9-7.9,5.7-15.9,8.9-23.7
			c1-2.6,3-4.9,4.5-7.3c3.7-7,7.6-14,11.8-20.8c4.2-5.4,7.8-11.4,16.4-11.2c2.3,2.4,5.4,4.6,3.1,8.5c-0.5,0.5-1,1-1.5,1.5
			C1450.8,342.7,1448.3,346.3,1445.8,349.9z"/>
		<path fill="#D20101" d="M1494,374c-4.6-0.7-4.7-4.7-4.9-7.4c-0.3-6-1.5-12.2,0.7-18.1c3.7,5.1-0.1,11,2.2,16.3
			c0.6,0.4,1.3,0.9,1.9,1.3C1494,368.7,1494,371.4,1494,374z"/>
		<path fill="#FDE8E3" d="M1490.2,386.7c1.1-3.2-0.8-7.4,3.7-9.5c0,1.6,0,3.2,0,4.8C1491.9,383,1492.9,386.1,1490.2,386.7z"/>
		<path fill="#E30101" d="M1348.4,390.2c-2.7,6.6-1.9,14.1-5.5,20.5c-2.2,4.8,0.4,9.6-0.3,14.4c4.6,11.3,22.9,15.7,29.7,6.4
			c5.8-8,9.4-17.3,13.7-26.2c2.6-5.4,4.5-11.2,6.7-16.7c1.1-0.2,1.6-0.9,1.6-1.9c1.2-5.8,0-11.7,0.4-17.3
			c0.9-12.1,4.3-24.2,9.6-35.5c4.8-0.7,1.7,3.9,3.9,5c1.7,5.4,1.6,10.7-0.2,16c-0.2,4.2-1.1,8.5,0.1,12.7c2.6,5,1.6,10.4,1.6,15.7
			c-1.8,2.5,0.7,5.8-1.7,8.2c-3.8,15-8.6,29.7-17.8,42.8c-10.6,15-25.9,20.8-43.5,16.2c-13-3.4-21.1-13.3-20.9-25.8
			c0.3-19.9,5.4-38.8,14.1-56.9c4.3-8.8,7.2-18.3,14.3-25.9c3.3-1.3,4.1-6.5,9.1-5.1c0.8,0.9,1,2.2,0.2,2.9c-6.1,5.7-7,13.7-10,20.7
			c-2.1,4.9-4.1,9.6-7.4,14.1C1342.1,379.5,1341.8,385.8,1348.4,390.2z"/>
		<path fill="#E10101" d="M1467.7,516.2c-4.1,3.5-9.1,1.2-13.6,2.1c-30.7,5.8-62.2,4.4-93,10c-20.4,3.7-40.8,7.4-60.8,12.8
			c-6.6,1.8-13.5,1.5-20,4c-5.2,1.9-7.9-2.5-9.8-6.5c7.7-5.9,17.2-8.1,26.3-10.8c17.1-5,34.7-8.3,52-12.6c8-2,16.5-1.3,24.7-2
			c11.3-1,22.5-2.6,33.7-4.7c3.5-0.6,6.6,1.2,10.1,1.2c9,0.1,17.8,1.5,27-0.1C1452.5,508.4,1460.3,512.7,1467.7,516.2z"/>
		<path fill="#E40101" d="M1303,369.2c-6,2.9-12.3,5.3-17.7,9.3c-4.8,3.5-9.3,3.2-13.2-1.5c-2-3.7,1.2-5.5,3.6-6.8
			c10.7-5.7,19.2-14,29-20.7c5.3-3,8.2-8.6,14.2-10.9c5.9-2.2,11.8-4,16.7,1.9c-1,14.7-9.8,26.9-15.7,39.9
			c-2.4,5.4-2.8,11.8-7.7,16.2c-6.9,8.9-8.7,19.6-12.4,29.7c-0.7,2-0.9,4.1-2,6c-1.6,2.9-3.2,5.7-7.3,5.8c-4.2,0-7.1-1.5-8.1-5.6
			c7.1-17.9,13.3-36.1,21.5-53.7c1.5-3.2,2.9-6.4,2.9-9.9C1305.5,368,1304.3,368.7,1303,369.2z"/>
		<path fill="#E10101" d="M1452.7,479.5c-9.5,0.2-18.5,3.2-28.1,3.4c-28.7,0.8-57.2,4.1-84.9,11.7c-6.4,1.7-12.9,1.6-19.2,3.2
			c-5,1.2-6.1-3.6-7.7-6.9c5.3-6,13.4-6.8,20.6-8.8c8.4-2.4,17-4.5,25.6-6.3c8.1-1.7,16.1-3,24.5-3c7,0,14.1-0.2,21.1-2.4
			c5.2-1.6,11.2-1.4,16.9,0.2c5.1,1.4,10.1,2.5,15.8,1.1C1443.7,469.9,1450.2,474.1,1452.7,479.5z"/>
		<path fill="#E30101" d="M1348.4,390.2c-2.5-2.1-8.9-0.9-8.3-3.8c0.9-4.3,0.5-10.9,3.4-12.8c7.3-4.9,7.9-12.6,9.7-18.8
			c2-7,5.9-12.1,10.2-17.5c3.7-6.8,17.9-13.1,25-11c4.1,1.2,6.3,3.5,4.3,7.8c-1.1,0.9-2,2.3-3.2,2.5c-19.7,2.5-23.9,18.5-31.3,31.4
			C1354.1,375,1351.6,382.8,1348.4,390.2z"/>
		<path fill="#E20101" d="M1284.2,431.5c0.3,3.8,2.8,4.8,6.4,4.8c4.9-0.1,6.1-3.4,7.1-6.8c2.8-9.7,5.4-19.5,10.3-28.6
			c1.1-2,1.6-4,4.3-4.4c-6.6,15.9-10.2,32.8-19.5,47.8c-3,2.5-4.1,5.9-5.4,9.3c-2.1,2.4-4.5,4.5-4.6,8.1
			c-0.3,14.6-11.4,26.2-11.7,41.2c-4.3-2-4.2-4.5-4.4-6.8c-2.3-16.1,1.3-31.4,7.7-46.3c1.8-4.2,3.2-8.5,5-12.7
			C1280.4,435,1280.1,431.6,1284.2,431.5z"/>
		<path fill="#C00000" d="M1467.7,516.2c-18.4-8.2-38.7-0.8-57.5-6c-4.2-1.2-9.7,0.2-14.2,1.6c-12.6,4-25.7,3.5-38.7,4.5
			c-15.1,1.1-29.2,6.1-43.9,9.2c-14.7,3.2-28.8,8.2-42.9,13c-0.9-4.9,3.5-5.6,6.6-6.5c10.8-3.1,21-7.9,32.3-9.6
			c2.8-1.5,6.3,0.4,9-1.5c12.2-4.4,24.8-6.8,37.8-8c5.4-2.5,11.9,1.6,17.1-2.3c0.4-0.9,1-1.1,2-0.7c4.6,1.1,9.1,1.1,13.7,0
			c8.9-2.4,17.9-4.4,27.2-1.9c4.1-1.2,8,1.5,12.1,0.3c1.3,2.1,3.7,1,5.5,1.5c2.7,0.8,4.7-0.5,6.7-1.9l-0.1,0.1
			c3.8-1,7.6-0.8,11.3-0.1C1456.2,512.1,1465.1,509,1467.7,516.2z"/>
		<path fill="#C20606" d="M1452.7,479.5c-4.9-5.2-10.8-7.6-18.2-5.9c-1.1,0.3-2.4,1.1-3.2,0.8c-18.9-7.3-37.7,0-56.3,1
			c-21.2,1.2-42.3,7.3-62.2,15.5c-1.9-4.3,2.1-5.5,4.7-6.2c21.3-6,42.2-13.5,65-13.9c12.5-0.2,24.6-5.5,37.4-2.8
			c2.3,1.4,5.1,0.8,7.6,1.7c2.5,3.7,5-0.6,7.5,0c2.9-0.7,5.8-1.2,8.6,0.2c3.1,2.6,8.1,1.6,11,4.9
			C1456.9,477.6,1457.9,479.4,1452.7,479.5z"/>
		<path fill="#D50404" d="M1284.2,431.5c-5.6,11.6-11.4,23.1-14.1,35.8c-2.1,9.6-3.3,19.1-3.4,28.8c-4.4-6.7-1.6-13.9-0.9-20.7
			c1.9-17.2,9.7-32.9,16.6-48.8c8-18.4,15.2-37.1,22.7-55.7c0.3-2.4,1.6-4.5,3-6.5c3.5,2.5,1.5,5.2,0.2,7.8
			C1299.1,391.7,1292.2,411.8,1284.2,431.5z"/>
		<path fill="#E30201" d="M1454.4,337.4c-1.1-2.7-2.3-5.4-3.4-8.1c3.9-6,10.9-9.2,16.2-7c3.1,1.2,6.2,2.8,4.4,6.9
			C1467.3,334.6,1459.5,333.6,1454.4,337.4z"/>
		<path fill="#CC0D0A" d="M1471.6,329.2c-2-6.2-6.4-7.3-12.2-4.6c-2.9,1.4-6.3,2.1-8.5,4.7c-6.9,1.6-11.3,6.3-15.5,11.2
			c-0.8,0.6-1.5,0.5-2.2-0.2c6.1-11.1,17-16.6,28.9-20.9c4.2-1.5,7.2,0.8,9.7,3.2C1473.8,324.6,1475.5,327.2,1471.6,329.2z"/>
		<path fill="#D30000" d="M1457.7,426.7c1.4,0.9,1.8,1.9,0.8,3.3c-5.9,8.1-15.8,6.4-24.1,7.4c-5.3,0.6-8-5.4-9.6-9.9
			c-2.3-6.5-2.7-13.3,0.3-19.8c1.9,7.8-1.4,16.6,5.3,23.4c7.8,4.1,17.4,2.8,25.4-3.4C1456.5,427.3,1457.1,427,1457.7,426.7z"/>
		<path fill="#C7120E" d="M1392.5,334c0.2-7.8-6.1-7.1-10.8-6c-6.8,1.6-13.6,4.1-18.5,9.3c-4.1-0.2-5.5,4.4-9.4,4.7
			c6.8-10.5,18.1-14.8,29.9-18.3c4.3-1.3,7.2,1.2,9.5,3.9C1394.9,329.5,1396.5,332.2,1392.5,334z"/>
		<path fill="#CA0F0E" d="M1304.8,350.1c-7.8,7.4-15.8,14.5-25.4,19.7c-3.2,1.7-6.8,3-7.2,7.2c-3.2-3.7-0.8-6.7,2.4-8.3
			c11.2-5.5,19.5-14.5,30.1-20.7C1305.4,348.7,1305.5,349.4,1304.8,350.1z"/>
		<path fill="#BD0000" d="M1304.8,350.1c-0.1-0.7-0.1-1.4-0.2-2.1c5.4-4.3,9-10.2,16.4-12.9c7.5-2.7,12-1.8,14.6,5.3
			c-8.8-4.3-16.1-1.4-22.7,4.4C1310.5,347,1308.7,350,1304.8,350.1z"/>
		<path fill="#D10100" d="M1433.3,340.3c0.7,0.1,1.5,0.1,2.2,0.2c-1.8,7.8-8.6,13.4-11,21c0,0.1-0.5,0-0.8-0.1
			c-0.2-0.1-0.4-0.4-0.6-0.6C1424.1,353,1428.3,346.5,1433.3,340.3z"/>
		<path fill="#C60C0C" d="M1455.9,427.6c-6.4,8.2-19.1,9.9-25.4,3.4C1439.3,432.3,1447.9,432.2,1455.9,427.6z"/>
		<path fill="#F7C4BC" d="M1492,364.8c-3.1-5.2,0.6-11.1-2.2-16.3c0.3-3.2,0.6-6.4,0.9-9.6C1493.5,347.4,1492.5,356.1,1492,364.8z"
			/>
		<path fill="#D20000" d="M1407.8,367.6c-2.5-4.2-2.5-8.5-0.1-12.7C1409.6,359.1,1409.1,363.4,1407.8,367.6z"/>
		<path fill="#E30201" d="M1445.8,349.9c0.9-4.5,3.7-7.9,7.1-11C1452.5,343.6,1449.3,346.8,1445.8,349.9z"/>
		<path fill="#C41616" d="M1428.3,508.3c-4.1,3-8.1,0.5-12.1-0.3C1420.3,504.8,1424.2,507.6,1428.3,508.3z"/>
		<path fill="#C10A0A" d="M1373.4,510.7c-5.1,4.7-11.4,1.4-17.1,2.3C1361.7,510.3,1367.9,512.8,1373.4,510.7z"/>
		<path fill="#EC6763" d="M1287.4,453.6c0.5-3.7,0-8,5.4-9.3C1291.8,447.8,1290.1,451,1287.4,453.6z"/>
		<path fill="#D40101" d="M1342.6,425.1c-2.5-4.8-2.9-9.7,0.3-14.4c0,1.4,0,2.7-0.1,4.1c0.9,3.1,1.1,6.2,0,9.2l0.2,0.6L1342.6,425.1
			z"/>
		<path fill="#D74847" d="M1474.7,383.2c0.9,4.4,1.3,8.7-3.9,11.3C1470.7,390.3,1473.8,387.1,1474.7,383.2z"/>
		<path fill="#E30201" d="M1428.6,390c0.8-4.4,0.9-8.9,3.6-12.8C1431.9,381.7,1432.5,386.4,1428.6,390z"/>
		<path fill="#C10A0A" d="M1389,510c-4.6,2.2-9.2,2.4-13.7,0C1379.8,510,1384.4,510,1389,510z"/>
		<path fill="#F8AA9E" d="M1308.1,364.5c0.4,2.7-1.8,4.4-3,6.5c-0.7-0.6-1.3-1.2-2-1.8C1304.3,367.2,1305.6,365.4,1308.1,364.5z"/>
		<path fill="#CD3D38" d="M1408,338.9c-1.3-1.7-2.6-3.3-3.9-5c0.3-1,0.9-2.4,2.1-1.6C1408.5,333.9,1407.9,336.6,1408,338.9z"/>
		<path fill="#C20A0A" d="M1451.7,508c-3.8,0-7.6,0-11.3,0.1C1444.1,505.1,1447.9,506.1,1451.7,508z"/>
		<path fill="#C10A0A" d="M1318.6,521c-2.6,2.6-5.9,1.4-9,1.5C1312.4,521.4,1315.4,520.4,1318.6,521z"/>
		<path fill="#C41616" d="M1440.5,507.9c-1.7,2.2-3.4,4.5-6.7,1.9C1435.7,508.2,1438,507.8,1440.5,507.9z"/>
		<path fill="#C4100F" d="M1443.6,469.9c-2.9-0.1-5.7-0.1-8.6-0.2C1437.9,466.7,1440.8,467.6,1443.6,469.9z"/>
		<path fill="#C4100F" d="M1427.4,469.7c-2.7,0.1-5.6,1.1-7.6-1.7C1422.6,467.8,1425.2,467.8,1427.4,469.7z"/>
		<path fill="#E30101" d="M1342.8,424.1c0-3.1,0-6.2,0-9.2C1344.2,417.9,1344.7,421,1342.8,424.1z"/>
		<path fill="#C50000" d="M1394.1,386.7c1.9,1.2,1.9,2.7,0.1,3.6c-1.6,0.8-1.5-0.8-1.7-1.7C1393,388,1393.6,387.4,1394.1,386.7z"/>
		<path fill="#F7D7D5" d="M1407.7,391.5c0.2-2.8,0.2-5.7,1.7-8.2c0.1,2.9,0.2,5.7,0.3,8.6l0.1-0.1
			C1409.2,391.7,1408.4,391.6,1407.7,391.5z"/>
	</g>
</g>
</svg>
