<?xml version="1.0" encoding="utf-8"?>
<!-- Generator: Adobe Illustrator 18.0.0, SVG Export Plug-In . SVG Version: 6.00 Build 0)  -->
<!DOCTYPE svg PUBLIC "-//W3C//DTD SVG 1.1//EN" "http://www.w3.org/Graphics/SVG/1.1/DTD/svg11.dtd">
<svg version="1.1" id="Layer_1" xmlns="http://www.w3.org/2000/svg" xmlns:xlink="http://www.w3.org/1999/xlink" x="0px" y="0px"
	 viewBox="841.5 0 1078.4 1080" enable-background="new 841.5 0 1078.4 1080" xml:space="preserve">
<circle fill="#ACC8F8" cx="1381.6" cy="539" r="540"/>
<g>
	<g>
		<g>
			<defs>
				<circle id="SVGID_1_" cx="1381.6" cy="539" r="540"/>
			</defs>
			<clipPath id="SVGID_2_">
				<use xlink:href="#SVGID_1_"  overflow="visible"/>
			</clipPath>
			<g clip-path="url(#SVGID_2_)">
				<path fill="#F8F5D3" d="M1015.2,244.4h734.5c32.5,0,58.8,29.1,58.8,64.9v811.8c0,35.9-26.3,64.9-58.8,64.9h-734.5
					c-32.5,0-58.8-29.1-58.8-64.9V309.3C956.4,273.5,982.7,244.4,1015.2,244.4z"/>
				<path fill="#285680" d="M1808.4,303.2V362H956.4v-58.8c0-32.5,26.3-58.8,58.8-58.8h734.5
					C1782.1,244.4,1808.4,270.7,1808.4,303.2z"/>
				<path fill="#B49ACA" d="M1044.6,915.7h673.8c8.1,0,14.7,6.6,14.7,14.7v88.2c0,8.1-6.6,14.7-14.7,14.7h-673.8
					c-8.1,0-14.7-6.6-14.7-14.7v-88.2C1029.9,922.3,1036.4,915.7,1044.6,915.7z"/>
				<path fill="#B49ACA" d="M1044.6,775.7h673.8c8.1,0,14.7,6.6,14.7,14.7v88.2c0,8.1-6.6,14.7-14.7,14.7h-673.8
					c-8.1,0-14.7-6.6-14.7-14.7v-88.2C1029.9,782.3,1036.4,775.7,1044.6,775.7z"/>
				<path fill="#B49ACA" d="M1044.6,635.7h673.8c8.1,0,14.7,6.6,14.7,14.7v88.2c0,8.1-6.6,14.7-14.7,14.7h-673.8
					c-8.1,0-14.7-6.6-14.7-14.7v-88.2C1029.9,642.3,1036.4,635.7,1044.6,635.7z"/>
				<path fill="#E64C3C" d="M1029.9,303.2c0,8.1-6.6,14.7-14.7,14.7s-14.7-6.6-14.7-14.7s6.6-14.7,14.7-14.7
					S1029.9,295.1,1029.9,303.2z"/>
				<path fill="#F0C419" d="M1088.6,303.2c0,8.1-6.6,14.7-14.7,14.7s-14.7-6.6-14.7-14.7s6.6-14.7,14.7-14.7
					S1088.6,295.1,1088.6,303.2z"/>
				<path fill="#4FBA6F" d="M1147.4,303.2c0,8.1-6.6,14.7-14.7,14.7s-14.7-6.6-14.7-14.7s6.6-14.7,14.7-14.7
					S1147.4,295.1,1147.4,303.2z"/>
				<g>
					<path fill="#4367CB" d="M1092.2,462.7v96.4c0,6.9-0.2,12.5-0.7,16.8s-1.1,7.5-1.9,9.4c-4.7,12-14.8,18.1-30.1,18.1
						c-8.6,0-15.1-1.2-19.6-3.5c-4.4-2.4-6.7-5.8-6.7-10.3c0-3.3,1-6.1,3-8.2s4.6-3.2,7.9-3.2c0.4,0,1.1,0.1,2,0.2
						c0.9,0.1,2.3,0.2,4.2,0.4c1.8,0.1,3.1,0.2,3.8,0.2c3.8,0,6.4-1.5,7.6-4.5c1.3-3,1.9-8.3,1.9-16v-95.7c0-5.6,1.3-9.9,4-12.7
						c2.6-2.8,6.1-4.3,10.4-4.3c4.2,0,7.5,1.4,10.1,4.2C1090.7,452.8,1092.2,457,1092.2,462.7z M1078.1,432.5c-4,0-7.3-1.2-10.1-3.6
						c-2.8-2.4-4.2-5.9-4.2-10.3c0-4,1.4-7.3,4.3-9.9c2.9-2.6,6.2-3.9,10-3.9c3.7,0,6.9,1.2,9.8,3.5c2.8,2.4,4.3,5.8,4.3,10.3
						c0,4.4-1.4,7.8-4.2,10.2C1085.2,431.3,1081.9,432.5,1078.1,432.5z"/>
					<path fill="#4367CB" d="M1227.7,503.5c0,8.5-1.3,16.3-4,23.4c-2.6,7.1-6.5,13.3-11.4,18.4c-5,5.1-11,9.1-17.9,11.8
						s-14.7,4.1-23.4,4.1c-8.6,0-16.3-1.4-23.2-4.2c-6.9-2.8-12.8-6.7-17.8-11.9s-8.8-11.3-11.4-18.3s-3.9-14.8-3.9-23.4
						s1.3-16.5,4-23.6c2.6-7.1,6.4-13.2,11.3-18.3c4.9-5.1,10.9-9,17.9-11.7s14.7-4.1,23.2-4.1c8.6,0,16.4,1.4,23.4,4.2
						s13,6.7,18,11.9c5,5.1,8.8,11.2,11.4,18.3C1226.4,487.1,1227.7,494.9,1227.7,503.5z M1199.2,503.5c0-11.6-2.5-20.6-7.6-27.1
						s-12-9.7-20.6-9.7c-5.6,0-10.4,1.4-14.7,4.3c-4.2,2.9-7.5,7.1-9.8,12.7s-3.4,12.2-3.4,19.7c0,7.4,1.1,13.9,3.4,19.5
						s5.5,9.8,9.7,12.7c4.2,2.9,9.1,4.4,14.8,4.4c8.6,0,15.5-3.2,20.6-9.7C1196.6,523.9,1199.2,514.9,1199.2,503.5z"/>
					<path fill="#4367CB" d="M1276.2,419.7v43.4c5.3-5.5,10.8-9.8,16.3-12.7s12.4-4.4,20.6-4.4c9.4,0,17.7,2.2,24.8,6.7
						s12.6,11,16.5,19.5s5.9,18.6,5.9,30.2c0,8.6-1.1,16.5-3.3,23.7c-2.2,7.2-5.4,13.4-9.5,18.7c-4.2,5.3-9.2,9.3-15.1,12.2
						c-5.9,2.9-12.5,4.3-19.6,4.3c-4.4,0-8.5-0.5-12.3-1.6c-3.9-1-7.1-2.4-9.8-4.1c-2.7-1.7-5-3.5-6.9-5.3c-1.9-1.8-4.4-4.5-7.5-8.1
						v2.8c0,5.3-1.3,9.4-3.9,12.1c-2.6,2.7-5.8,4.1-9.8,4.1s-7.2-1.4-9.6-4.1c-2.4-2.7-3.6-6.8-3.6-12.1V421
						c0-5.8,1.2-10.1,3.5-13.1c2.3-2.9,5.6-4.4,9.7-4.4c4.4,0,7.7,1.4,10.1,4.2C1275.1,410.5,1276.2,414.5,1276.2,419.7z
						 M1277.6,504.1c0,11.3,2.6,20,7.8,26.1s11.9,9.1,20.3,9.1c7.1,0,13.3-3.1,18.5-9.3c5.2-6.2,7.8-15.1,7.8-26.7
						c0-7.5-1.1-13.9-3.2-19.4c-2.2-5.4-5.2-9.6-9.2-12.5s-8.6-4.4-13.8-4.4c-5.4,0-10.2,1.5-14.5,4.4c-4.2,2.9-7.6,7.2-10,12.8
						C1278.8,489.7,1277.6,496.4,1277.6,504.1z"/>
					<path fill="#4367CB" d="M1397.6,432.5c-4,0-7.3-1.2-10.1-3.6c-2.8-2.4-4.2-5.9-4.2-10.3c0-4,1.4-7.3,4.3-9.9
						c2.9-2.6,6.2-3.9,10-3.9c3.7,0,6.9,1.2,9.8,3.5c2.8,2.4,4.3,5.8,4.3,10.3c0,4.4-1.4,7.8-4.2,10.2
						C1404.7,431.3,1401.4,432.5,1397.6,432.5z M1411.6,461.8v82.1c0,5.7-1.4,10-4.1,12.9s-6.1,4.4-10.3,4.4s-7.5-1.5-10.1-4.5
						s-3.9-7.2-3.9-12.8v-81.3c0-5.6,1.3-9.9,3.9-12.7c2.6-2.8,6-4.3,10.1-4.3s7.6,1.4,10.3,4.3
						C1410.2,452.8,1411.6,456.8,1411.6,461.8z"/>
					<path fill="#4367CB" d="M1466.6,461.4v3.4c5-6.6,10.5-11.4,16.4-14.5c5.9-3.1,12.7-4.6,20.4-4.6c7.5,0,14.2,1.6,20.1,4.9
						c5.9,3.3,10.3,7.9,13.2,13.8c1.9,3.5,3.1,7.2,3.6,11.2c0.6,4,0.8,9.2,0.8,15.4v52.9c0,5.7-1.3,10-3.9,12.9
						c-2.6,2.9-6,4.4-10.1,4.4c-4.2,0-7.7-1.5-10.3-4.5c-2.6-3-4-7.2-4-12.8v-47.3c0-9.4-1.3-16.5-3.9-21.5c-2.6-5-7.8-7.4-15.6-7.4
						c-5.1,0-9.7,1.5-13.8,4.5c-4.2,3-7.2,7.2-9.2,12.4c-1.4,4.2-2.1,12.1-2.1,23.7v35.6c0,5.8-1.3,10.1-4,13s-6.1,4.3-10.4,4.3
						c-4.1,0-7.5-1.5-10.1-4.5c-2.6-3-4-7.2-4-12.8v-82.1c0-5.4,1.2-9.5,3.5-12.1c2.4-2.7,5.6-4,9.7-4c2.5,0,4.8,0.6,6.8,1.8
						c2,1.2,3.6,2.9,4.8,5.3C1466.1,455.1,1466.6,458,1466.6,461.4z"/>
					<path fill="#4367CB" d="M1598.1,462.7v96.4c0,6.9-0.2,12.5-0.7,16.8s-1.1,7.5-1.9,9.4c-4.7,12.1-14.7,18.1-30.1,18.1
						c-8.6,0-15.1-1.2-19.6-3.5c-4.4-2.4-6.7-5.8-6.7-10.3c0-3.3,1-6.1,3-8.2c2-2.1,4.6-3.2,7.9-3.2c0.4,0,1.1,0.1,2,0.2
						c0.9,0.1,2.3,0.2,4.2,0.4c1.8,0.1,3.1,0.2,3.8,0.2c3.8,0,6.4-1.5,7.6-4.5c1.3-3,1.9-8.3,1.9-16v-95.7c0-5.6,1.3-9.9,4-12.7
						c2.6-2.8,6.1-4.3,10.4-4.3c4.2,0,7.5,1.4,10.1,4.2C1596.6,452.8,1598.1,457,1598.1,462.7z M1584.1,432.5c-4,0-7.3-1.2-10.1-3.6
						c-2.8-2.4-4.2-5.9-4.2-10.3c0-4,1.4-7.3,4.3-9.9c2.9-2.6,6.2-3.9,10-3.9c3.7,0,6.9,1.2,9.8,3.5c2.8,2.4,4.3,5.8,4.3,10.3
						c0,4.4-1.4,7.8-4.2,10.2C1591.2,431.3,1587.9,432.5,1584.1,432.5z"/>
					<path fill="#4367CB" d="M1699.1,545.2c-6.9,5.3-13.5,9.3-19.9,12c-6.4,2.7-13.6,4-21.6,4c-7.3,0-13.7-1.4-19.2-4.3
						c-5.5-2.9-9.8-6.8-12.7-11.7c-3-4.9-4.5-10.3-4.5-16c0-7.8,2.5-14.4,7.4-19.9c4.9-5.5,11.7-9.2,20.3-11
						c1.8-0.4,6.3-1.4,13.4-2.8c7.1-1.5,13.3-2.8,18.4-4c5.1-1.2,10.6-2.7,16.6-4.4c-0.3-7.5-1.9-13-4.5-16.5
						c-2.7-3.5-8.2-5.3-16.6-5.3c-7.2,0-12.6,1-16.3,3c-3.6,2-6.8,5-9.4,9.1c-2.6,4-4.4,6.7-5.5,8c-1.1,1.3-3.4,1.9-6.9,1.9
						c-3.2,0-5.9-1-8.3-3.1c-2.3-2-3.5-4.7-3.5-7.9c0-5,1.8-9.9,5.3-14.6s9.1-8.6,16.5-11.7c7.5-3.1,16.8-4.6,28-4.6
						c12.5,0,22.3,1.5,29.4,4.4c7.1,2.9,12.2,7.6,15.1,14c2.9,6.4,4.4,14.8,4.4,25.4c0,6.7,0,12.3-0.1,17c0,4.6-0.1,9.8-0.2,15.5
						c0,5.3,0.9,10.9,2.7,16.7s2.7,9.5,2.7,11.2c0,2.9-1.4,5.6-4.1,8s-5.8,3.6-9.3,3.6c-2.9,0-5.8-1.4-8.6-4.1
						C1705.4,554.4,1702.2,550.4,1699.1,545.2z M1697.2,504.1c-4.2,1.5-10.2,3.1-18.2,4.8c-7.9,1.7-13.4,2.9-16.5,3.7
						c-3.1,0.8-6,2.4-8.7,4.7c-2.8,2.3-4.2,5.6-4.2,9.7c0,4.3,1.6,8,4.9,11s7.5,4.5,12.8,4.5c5.6,0,10.8-1.2,15.6-3.7
						c4.8-2.5,8.2-5.6,10.5-9.5c2.6-4.3,3.8-11.4,3.8-21.2L1697.2,504.1L1697.2,504.1z"/>
				</g>
			</g>
		</g>
	</g>
</g>
</svg>
