<?xml version="1.0" encoding="UTF-8"?>
<svg width="40px" height="40px" viewBox="0 0 40 40" version="1.1" xmlns="http://www.w3.org/2000/svg" xmlns:xlink="http://www.w3.org/1999/xlink">
    <!-- Generator: Sketch 52.3 (67297) - http://www.bohemiancoding.com/sketch -->
    <title>Icon / Quote / Right</title>
    <desc>Created with Sketch.</desc>
    <g id="Icon-/-Quote-/-Right" stroke="none" stroke-width="1" fill="none" fill-rule="evenodd">
        <path d="M9.74358974,4 C15.3575987,4 19.4871795,8.36774108 19.4871795,13.6482409 L19.4871795,14.1306529 C19.4871795,26.028439 8.91766832,30.6909533 8.91766832,30.6909533 L8.20973553,31 L5.69391026,27.6796467 L6.48938296,27.1030138 C6.48938296,27.1030138 7.32204656,26.4946941 8.16025641,25.5540196 C8.77018291,24.8695328 9.05341094,24.019463 9.31350165,23.2097981 C4.15422859,22.97342 -7.10542736e-15,18.8140101 -7.10542736e-15,13.6482409 C-7.10542736e-15,8.33150364 4.37430978,4 9.74358974,4 Z M9.74358974,5.92964817 C5.4277415,5.92964817 1.94871795,9.37462667 1.94871795,13.6482409 C1.94871795,17.9218551 5.4277415,21.3668336 9.74358974,21.3668336 L11.6923077,21.3668336 L11.6923077,22.3316576 C11.6923077,24.1809032 10.6105081,25.7183117 9.62179487,26.8278884 C8.99573357,27.530481 8.74197503,27.6790466 8.36578535,27.9849247 L8.74639413,28.4899484 C9.81687635,27.9897199 17.5384615,24.204551 17.5384615,14.1306529 L17.5384615,13.6482409 C17.5384615,9.33838923 14.3603501,5.92964817 9.74358974,5.92964817 Z M30.2564103,8 C35.8704192,8 40,12.3677411 40,17.6482409 L40,18.1306529 C40,30.028439 29.4304888,34.6909533 29.4304888,34.6909533 L28.722556,35 L26.2067308,31.6796467 L27.0022035,31.1030138 C27.0022035,31.1030138 27.8348671,30.4946941 28.6730769,29.5540196 C29.2830034,28.8695328 29.5662315,28.019463 29.8263222,27.2097981 C24.6670491,26.97342 20.5128205,22.8140101 20.5128205,17.6482409 C20.5128205,12.3315036 24.8871303,8 30.2564103,8 Z M30.2564103,9.92964817 C25.940562,9.92964817 22.4615385,13.3746267 22.4615385,17.6482409 C22.4615385,21.9218551 25.940562,25.3668336 30.2564103,25.3668336 L32.2051282,25.3668336 L32.2051282,26.3316576 C32.2051282,28.1809032 31.1233286,29.7183117 30.1346154,30.8278884 C29.5085541,31.530481 29.2547955,31.6790466 28.8786059,31.9849247 L29.2592146,32.4899484 C30.3296969,31.9897199 38.0512821,28.204551 38.0512821,18.1306529 L38.0512821,17.6482409 C38.0512821,13.3383892 34.8731706,9.92964817 30.2564103,9.92964817 Z" id="Combined-Shape" fill="#FFFFFF"></path>
    </g>
</svg>