<?xml version="1.0" encoding="utf-8"?>
<!-- Generator: Adobe Illustrator 18.0.0, SVG Export Plug-In . SVG Version: 6.00 Build 0)  -->
<!DOCTYPE svg PUBLIC "-//W3C//DTD SVG 1.1//EN" "http://www.w3.org/Graphics/SVG/1.1/DTD/svg11.dtd">
<svg version="1.1" id="Layer_1" xmlns="http://www.w3.org/2000/svg" xmlns:xlink="http://www.w3.org/1999/xlink" x="0px" y="0px"
	 viewBox="838.3 0 1081.7 1080" enable-background="new 838.3 0 1081.7 1080" xml:space="preserve">
<circle fill="#ACC8F8" cx="1378.4" cy="540" r="540"/>
<g>
	<g>
		<defs>
			<circle id="SVGID_1_" cx="1378.4" cy="540" r="540"/>
		</defs>
		<clipPath id="SVGID_2_">
			<use xlink:href="#SVGID_1_"  overflow="visible"/>
		</clipPath>
	</g>
</g>
<g>
	<defs>
		<circle id="SVGID_3_" cx="1378.4" cy="540" r="540"/>
	</defs>
	<clipPath id="SVGID_4_">
		<use xlink:href="#SVGID_3_"  overflow="visible"/>
	</clipPath>
	<path clip-path="url(#SVGID_4_)" fill="#FFFFFF" d="M1368.1,278.2c-6.8,3-13.9,5.4-21.2,7.1c8-7.6,14.1-17.1,17.5-27.8l0,0
		c0.9-3-2.3-5.6-5-4l0,0c-10.1,6-21.1,10.5-32.5,13.4c-0.7,0.1-1.3,0.2-2,0.2c-2.1,0-4.1-0.8-5.6-2.2
		c-12.1-10.7-27.7-16.5-43.9-16.5c-7,0-14.1,1.1-21,3.3c-21.6,6.7-38.1,24.4-43.4,46.3c-2,8.2-2.5,16.4-1.5,24.4
		c0.1,0.9-0.4,1.5-0.6,1.9c-0.5,0.6-1.2,0.8-1.9,0.8c-0.1,0-0.1,0-0.2,0c-47.1-4.3-89.5-27.1-119.5-63.9l0,0
		c-1.5-1.9-4.5-1.6-5.7,0.5l0,0c-5.9,10.1-9,21.6-9,33.4c0,17.9,7.3,34.9,19.8,47.3c-5.3-1.3-10.4-3.2-15.1-5.9l0,0
		c-2.3-1.3-5.2,0.4-5.2,3l0,0c-0.4,26.7,15.4,50.5,38.8,61.2c-0.5,0-0.9,0-1.4,0c-3.8,0-7.5-0.4-11.1-1.1l0,0c-2.6-0.5-4.8,2-4,4.5
		l0,0c7.6,23.8,28,41.3,52.5,45.2c-20.3,13.6-43.9,20.9-68.6,20.9h-7.6c-2.3,0-4.3,1.5-4.9,3.9c-0.6,2.2,0.5,4.7,2.5,5.9
		c27.8,16.2,59.4,24.7,91.5,24.7c28.1,0,54.4-5.6,78.2-16.6c21.8-10.1,41-24.5,57.2-42.9c15.1-17.1,26.8-36.8,35-58.7
		c7.7-20.9,12-43,12-64.2v-1.1c0-3.4,1.5-6.6,4.2-8.8c10.2-8.3,19.1-18,26.4-28.9l0,0C1374.3,280.4,1371.2,276.8,1368.1,278.2
		L1368.1,278.2z"/>
	<g transform="translate(0 -1)" clip-path="url(#SVGID_4_)">
		<path fill="#FFFFFF" d="M1105,531.3c20,0,37,16.9,37,37c0,21.2-18,37.6-37,37c-19.6,0.6-37-15.8-37-37
			C1067.4,547.7,1084.4,531.3,1105,531.3"/>
		<path fill="#FFFFFF" d="M1125.6,832.6h-42.3c-5.8,0-10.5-4.8-10.5-10.5V637c0-5.8,4.2-10.5,10.1-10.5h42.8
			c5.8,0,10.5,4.8,10.5,10.5v185.5C1136.2,827.9,1131.4,832.6,1125.6,832.6"/>
		<path fill="#FFFFFF" d="M1374.1,691c0-39.2-29.1-69.7-68.1-69.7h-11.2c-21.2,0-41.8,10.1-52.9,26.5c-3.7,3.7-5.3,5.3-5.3,5.3
			v-21.2c0-2.2-3.2-5.3-5.3-5.3h-52.8c-2.2,0-5.3,2.2-5.3,4.8v197.2c0,2.2,3.2,4.2,5.3,4.2h58.2c2.2,0,5.3-2.2,5.3-4.2V714.2
			c0-19.6,14.8-36,34.4-36.5c10.1,0,19,3.7,25.9,10.5c6.3,6.3,8.9,15.3,8.9,25.4v113.7c0,2.2,3.2,5.3,5.3,5.3h52.9
			c2.2,0,5.3-3.2,5.3-5.3V691H1374.1z"/>
	</g>
	<g clip-path="url(#SVGID_4_)">
		<path fill="#FFFFFF" d="M1565.3,768.6l-54.4,54.3c-1.7,1-3.7,3.4-8.2,2.2c-2.3-0.8-5.1-3.4-5.5-6.4v-0.1l-15.6-93.5l12.8-9.6
			c1.7,1,33.1,19.4,31.2,18.3l39.9,23.5C1568.5,760.3,1568.5,765.4,1565.3,768.6z"/>
		<path fill="#FFFFFF" d="M1693,573.5l-49.5,245.4c-0.5,2.6-2.4,4.9-5.1,5.9c-1,0.5-1.9,0.6-2.9,0.6c-1.7,0-3.2-0.5-4.7-1.4
			c-1.7-1.2-121.6-86.9-114.1-81.5c-72.7-36-34.8-17.1-97.1-48.2c-2.9-1.4-4.6-4.5-4.6-7.5c0.1-3.2,1.9-6,4.9-7.3l261.7-115.1
			c2.8-1.1,6-0.8,8.3,1.1c0.4,0.4,0.8,0.8,1.1,1.1C1692.7,568.6,1693.5,571,1693,573.5z"/>
		<path fill="#D8D8D8" d="M1691.2,566.6l-165.7,167l-8.7,8.8l-14,82.5c-2.3-0.8-5.1-3.4-5.5-6.4l0,0l-15.6-93.5l12.8-9.6
			L1691.2,566.6z"/>
	</g>
	<g clip-path="url(#SVGID_4_)">
		<path fill="#FFFFFF" d="M1619.4,232.1h-110.6c-44.9,0-81.5,36.6-81.5,81.5v110.6c0,44.9,36.6,81.5,81.5,81.5h110.6
			c44.9,0,81.5-36.6,81.5-81.5V313.6C1700.9,268.7,1664.4,232.1,1619.4,232.1z M1673.4,424.1c0,29.8-24.1,54-54,54h-110.6
			c-29.8,0-54-24.1-54-54V313.6c0-29.8,24.1-54,54-54h110.6c29.8,0,54,24.1,54,54V424.1L1673.4,424.1z"/>
		<path fill="#FFFFFF" d="M1564.2,298c-39,0-70.8,31.7-70.8,70.8s31.7,70.8,70.8,70.8s70.8-31.7,70.8-70.8S1603.2,298,1564.2,298z
			 M1564.2,412.1c-23.9,0-43.3-19.3-43.3-43.3s19.3-43.3,43.3-43.3c23.9,0,43.3,19.3,43.3,43.3S1588,412.1,1564.2,412.1z"/>
		<circle fill="#FFFFFF" cx="1635.1" cy="298.6" r="17"/>
	</g>
</g>
</svg>
