<?xml version="1.0" encoding="utf-8"?>
<!-- Generator: Adobe Illustrator 18.0.0, SVG Export Plug-In . SVG Version: 6.00 Build 0)  -->
<!DOCTYPE svg PUBLIC "-//W3C//DTD SVG 1.1//EN" "http://www.w3.org/Graphics/SVG/1.1/DTD/svg11.dtd">
<svg version="1.1" id="Capa_1" xmlns="http://www.w3.org/2000/svg" xmlns:xlink="http://www.w3.org/1999/xlink" x="0px" y="0px"
	 viewBox="419 4.7 1073.3 1073.3" enable-background="new 419 4.7 1073.3 1073.3" xml:space="preserve">
<circle fill="#ACC8F8" cx="955.7" cy="541.3" r="536.7"/>
<g>
	<defs>
		<circle id="SVGID_1_" cx="955.7" cy="541.3" r="536.7"/>
	</defs>
	<clipPath id="SVGID_2_">
		<use xlink:href="#SVGID_1_"  overflow="visible"/>
	</clipPath>
	<g clip-path="url(#SVGID_2_)">
		<path fill="#F29F5C" d="M1323.5,594.5l-29.1-236.7l-54.6,6.7l0,0L1133.9,305c-11.3-6.4-24.2-9.1-37.1-7.9l-167.1,15.5
			c-20.5,1.9-38.9,13.6-49.3,31.5L762.6,546.7c-8.7,15-1.9,34.2,14.3,40.3l4.8,1.8c9.3,3.5,18.8,5.5,28.3,6.3l-14.9,13l-29.9,26
			l-84.9,72.4c-15.1,13.2-16.7,36.1-3.5,51.2l8.6,9.9c16.9,19.4,46.3,21.4,65.8,4.5l32.5,37.2c10.6,12.1,26,17.5,40.9,15.7
			c8.9-1.1,17.6-4.8,24.9-11.2l32.4,37.2c10.6,12.2,26,17.5,40.9,15.6c8.9-1.1,17.6-4.8,24.9-11.1l17.6,15.2
			c16.9,19.4,46.4,21.4,65.8,4.5l24-20.9l201.4-156.8l0.2-0.2l79.5-0.1L1323.5,594.5z"/>
		<path fill="#D37D42" d="M1237.2,636.5l-0.2,0.2l-201.4,156.8l-24,20.9c-19.4,16.9-48.9,14.9-65.8-4.5l-17.6-15.2
			c-7.3,6.4-16,10-24.9,11.1c-14.9,1.8-30.3-3.5-40.9-15.6l-32.4-37.2c-7.3,6.4-16,10.1-24.9,11.2c-14.9,1.8-30.3-3.5-40.9-15.7
			l-32.5-37.2c-16.6,14.5-40.6,15-57.8,2.7c-8.8,13.3-8.1,31.3,2.9,43.9l8.6,9.9c16.9,19.4,46.3,21.4,65.8,4.5l32.5,37.2
			c10.6,12.1,26,17.5,40.9,15.7c8.9-1.1,17.6-4.8,24.9-11.2l32.4,37.2c10.6,12.2,26,17.5,40.9,15.6c8.9-1.1,17.6-4.8,24.9-11.1
			l17.6,15.2c16.9,19.4,46.4,21.4,65.8,4.5l24-20.9l201.4-156.8l0.2-0.2l79.5-0.1l-8.8-71.4L1237.2,636.5z"/>
		<path fill="#F9C295" d="M1273.8,738.9l-107.9-93l-30-25.9l-21.5-18.5l-92.3-79.6l10.7-90.7c3.6-30.7-15.7-59.4-45.5-67.7
			l-201.2-55.7c-21.3-5.9-43.8,4-53.9,23.6l-25.3,49.4l-108.6-7.4l-27.8,236.8l-12.1,102.9l105.7,7l0.2,0.2l220.9,190.4l24.1,20.8
			c19.5,16.8,49,14.6,65.8-4.9l32.2-37.4c7.3,6.3,16,9.9,25,11c14.9,1.7,30.3-3.7,40.8-15.9l32.2-37.4c7.3,6.3,16,10,25,11
			c14.9,1.7,30.3-3.7,40.8-15.9l32.3-37.4c19.5,16.8,48.9,14.6,65.8-4.9l8.6-9.9C1290.7,774.9,1289,752,1273.8,738.9z"/>
		<g>
			<path fill="#E59F6A" d="M1273.8,738.9l-32.9-28.3c10.7,14.2,10.5,34.3-1.6,48.3l-9.1,10.5c-17.8,20.7-49.1,23-69.8,5.2
				l-34.2,39.7c-11.1,12.9-27.5,18.7-43.3,16.9c-9.5-1.1-18.7-5-26.5-11.7l-34.2,39.7c-11.2,13-27.5,18.7-43.3,16.8
				c-9.5-1.1-18.8-5-26.5-11.7L918.2,904c-6.4,7.5-14.6,12.5-23.5,15.1l14.6,12.6c19.5,16.8,49,14.6,65.8-4.9l32.2-37.4
				c7.3,6.3,16,9.9,25,11c14.9,1.7,30.3-3.7,40.8-15.9l32.2-37.4c7.3,6.3,16,10,25,11c14.9,1.7,30.3-3.7,40.8-15.9l32.2-37.4
				c19.5,16.8,48.9,14.6,65.8-4.9l8.6-9.9C1290.7,774.9,1289,752,1273.8,738.9z"/>
			<path fill="#E59F6A" d="M1214.2,792.4l-59.1-51c-7-6.1-17.6-5.3-23.7,1.8c-6.1,7-5.3,17.6,1.8,23.7l59,50.9l11.1-12.9
				c4.4,3.8,9.4,6.6,14.6,8.5C1221.8,806.5,1220.4,797.7,1214.2,792.4z"/>
			<path fill="#E59F6A" d="M1119.7,855.6c4-6.9,2.8-15.8-3.5-21.2l-53.1-45.8c-7-6.1-17.6-5.3-23.7,1.8c-6.1,7-5.3,17.6,1.8,23.7
				l53.1,45.8c0,0,0,0,0.1,0.1l11-12.7C1109.7,850.9,1114.6,853.7,1119.7,855.6z"/>
		</g>
		<g>
			<path fill="#F29F5C" d="M669.7,720.1L656.9,737c-13.9,18.4-10.3,44.6,8.1,58.6l0,0c18.4,13.9,44.6,10.3,58.6-8.1l12.8-16.9
				c13.9-18.4,10.3-44.6-8.1-58.6l0,0C709.8,698,683.6,701.7,669.7,720.1z"/>
			<path fill="#F29F5C" d="M747.6,755.6l-24.1,31.8c-13.9,18.4-10.3,44.6,8.1,58.6l0,0c18.4,13.9,44.6,10.3,58.6-8.1l24.1-31.8
				c13.9-18.4,10.3-44.6-8.1-58.6l0,0C787.7,733.6,761.5,737.2,747.6,755.6z"/>
			<path fill="#F29F5C" d="M823,794.5l-32.8,43.4c-13.9,18.4-10.3,44.6,8.1,58.6l0,0c18.4,13.9,44.6,10.3,58.6-8.1l32.8-43.4
				c13.9-18.4,10.3-44.6-8.1-58.6l0,0C863.1,772.5,836.9,776.1,823,794.5z"/>
			<path fill="#F29F5C" d="M891.5,842.5l-34.8,45.9c-13.9,18.4-10.3,44.6,8.1,58.6l0,0c18.4,13.9,44.6,10.3,58.6-8.1l34.8-45.9
				c13.9-18.4,10.3-44.6-8.1-58.6l0,0C931.7,820.5,905.5,824.1,891.5,842.5z"/>
			<path fill="#F29F5C" d="M1239.8,364.6L1133.9,305c-11.3-6.4-24.2-9.1-37.1-7.9l-167.1,15.5c-20.5,1.9-38.9,13.6-49.3,31.5
				L762.6,546.7c-8.7,15-1.9,34.2,14.3,40.3l4.8,1.8c43.2,16.3,91.9,2.4,120.1-34.2l45.1-58.7c0,0,108.5,125.6,227.9-21.1"/>
		</g>
		<path fill="#5C9CEE" d="M1533.3,729L1478,279.4c-0.5-4.4-2.8-8.4-6.3-11.2c-3.5-2.7-8-4-12.4-3.4l-129.4,15.9
			c-33.6,4.1-57.6,34.9-53.5,68.5l44.5,361.1c3.8,31.1,30.4,53.9,60.9,53.9c2.5,0,5-0.2,7.5-0.5l129.4-15.9
			C1527.9,746.6,1534.5,738.3,1533.3,729z"/>
		<path fill="#3580D3" d="M1533.3,729l-6.1-49.4c-2.8,4-7.2,6.9-12.4,7.6L1379.2,704c-2.7,0.3-5.3,0.5-7.9,0.5
			c-22.8,0-43.5-12.2-55-31l4.5,36.8c3.8,31.1,30.4,53.9,60.9,53.9c2.5,0,5-0.2,7.5-0.5l129.4-15.9
			C1527.9,746.6,1534.5,738.3,1533.3,729z"/>
		<path fill="#ED5575" d="M590.2,280.7l-129.4-15.9c-4.4-0.5-8.9,0.7-12.4,3.4c-3.5,2.7-5.8,6.8-6.3,11.2L386.7,729
			c-1.1,9.2,5.4,17.6,14.6,18.7l129.4,15.9c2.5,0.3,5.1,0.5,7.5,0.5c30.6,0,57.1-22.8,60.9-53.9l44.5-361.1
			C647.8,315.5,623.8,284.8,590.2,280.7z"/>
		<path fill="#CC3A60" d="M386.7,729l6.1-49.4c2.8,4,7.2,6.9,12.4,7.6L540.8,704c2.7,0.3,5.3,0.5,7.9,0.5c22.8,0,43.5-12.2,55-31
			l-4.5,36.8c-3.8,31.1-30.4,53.9-60.9,53.9c-2.5,0-5-0.2-7.5-0.5l-129.4-15.9C392.1,746.6,385.5,738.3,386.7,729z"/>
		<g>
			<circle fill="#EBEEF2" cx="1425.9" cy="657" r="32.5"/>
			<circle fill="#EBEEF2" cx="492.3" cy="657" r="32.5"/>
		</g>
	</g>
</g>
</svg>
