<?xml version="1.0" encoding="UTF-8"?>
<svg width="40px" height="40px" viewBox="0 0 40 40" version="1.1" xmlns="http://www.w3.org/2000/svg" xmlns:xlink="http://www.w3.org/1999/xlink">
    <!-- Generator: Sketch 52.3 (67297) - http://www.bohemiancoding.com/sketch -->
    <title>Icon / Quote / Left</title>
    <desc>Created with Sketch.</desc>
    <g id="Icon-/-Quote-/-Left" stroke="none" stroke-width="1" fill="none" fill-rule="evenodd">
        <path d="M9.5,8 C14.9736587,8 19,12.3677411 19,17.6482409 L19,18.1306529 C19,30.028439 8.69472661,34.6909533 8.69472661,34.6909533 L8.00449214,35 L5.5515625,31.6796467 L6.32714839,31.1030138 C6.32714839,31.1030138 7.1389954,30.4946941 7.95625,29.5540196 C8.55092834,28.8695328 8.82707567,28.019463 9.08066411,27.2097981 C4.05037288,26.97342 0,22.8140101 0,17.6482409 C0,12.3315036 4.26495204,8 9.5,8 Z M9.5,9.92964817 C5.29204796,9.92964817 1.9,13.3746267 1.9,17.6482409 C1.9,21.9218551 5.29204796,25.3668336 9.5,25.3668336 L11.4,25.3668336 L11.4,26.3316576 C11.4,28.1809032 10.3452454,29.7183117 9.38125,30.8278884 C8.77084023,31.530481 8.52342565,31.6790466 8.15664072,31.9849247 L8.52773428,32.4899484 C9.57145444,31.9897199 17.1,28.204551 17.1,18.1306529 L17.1,17.6482409 C17.1,13.3383892 14.0013413,9.92964817 9.5,9.92964817 Z M30.5,4 C35.9736587,4 40,8.36774108 40,13.6482409 L40,14.1306529 C40,26.028439 29.6947266,30.6909533 29.6947266,30.6909533 L29.0044921,31 L26.5515625,27.6796467 L27.3271484,27.1030138 C27.3271484,27.1030138 28.1389954,26.4946941 28.95625,25.5540196 C29.5509283,24.8695328 29.8270757,24.019463 30.0806641,23.2097981 C25.0503729,22.97342 21,18.8140101 21,13.6482409 C21,8.33150364 25.264952,4 30.5,4 Z M30.5,5.92964817 C26.292048,5.92964817 22.9,9.37462667 22.9,13.6482409 C22.9,17.9218551 26.292048,21.3668336 30.5,21.3668336 L32.4,21.3668336 L32.4,22.3316576 C32.4,24.1809032 31.3452454,25.7183117 30.38125,26.8278884 C29.7708402,27.530481 29.5234256,27.6790466 29.1566407,27.9849247 L29.5277343,28.4899484 C30.5714544,27.9897199 38.1,24.204551 38.1,14.1306529 L38.1,13.6482409 C38.1,9.33838923 35.0013413,5.92964817 30.5,5.92964817 Z" id="Combined-Shape" fill="#FFFFFF" transform="translate(20.000000, 19.500000) scale(-1, 1) translate(-20.000000, -19.500000) "></path>
    </g>
</svg>